# xmcd CD database file
#
# Track frame offsets:
#	150
#	33077
#	59061
#	84640
#	108182
#	136265
#	166540
#	196960
#	218984
#	261274
#
# Disc length: 4053 seconds
#
# Revision: 1
# Processed by: cddbd v1.5.1PL2 Copyright (c) Steve Scherf et al.
# Submitted via: CDex 1.50
#
DISCID=850fd30a
DTITLE=Jukka Gustavson and Hottoe - Toinen maisema
DYEAR=2006
DGENRE=Jazz
TTITLE0=The World's Scene Is Changing
TTITLE1=Road Movie
TTITLE2=Helge
TTITLE3=Muinaismaisema
TTITLE4=Juhlapuheissa ja kahvikutsuilla
TTITLE5=Pitkällä matkalla
TTITLE6=Suomen kulttuurin agentit
TTITLE7=Toinen maisema
TTITLE8=Grow Grain Grow
TTITLE9=Uuden aamun väkeä
EXTD=YEAR: 2006
EXTT0=
EXTT1=
EXTT2=
EXTT3=
EXTT4=
EXTT5=
EXTT6=
EXTT7=
EXTT8=
EXTT9=
PLAYORDER=
